<mxfile host="app.diagrams.net" modified="2023-04-17T12:18:47.185Z" agent="Mozilla/5.0 (Macintosh; Intel Mac OS X 10_15_7) AppleWebKit/605.1.15 (KHTML, like Gecko) Version/16.4 Safari/605.1.15" etag="QPRZJ9U_lUdwF0tfuaV1" version="21.1.8" type="github">
  <diagram name="Page-1" id="wcoBjHvXgBKuY1BlQ7IX">
    <mxGraphModel dx="658" dy="466" grid="1" gridSize="10" guides="1" tooltips="1" connect="1" arrows="1" fold="1" page="1" pageScale="1" pageWidth="827" pageHeight="1169" math="0" shadow="0">
      <root>
        <mxCell id="0" />
        <mxCell id="1" parent="0" />
        <mxCell id="1FKGHby47MiAxsP9Uc5e-16" value="" style="group" parent="1" vertex="1" connectable="0">
          <mxGeometry x="140" y="40" width="500" height="462" as="geometry" />
        </mxCell>
        <mxCell id="1FKGHby47MiAxsP9Uc5e-12" value="" style="group" parent="1FKGHby47MiAxsP9Uc5e-16" vertex="1" connectable="0">
          <mxGeometry x="30" width="155" height="150" as="geometry" />
        </mxCell>
        <mxCell id="1FKGHby47MiAxsP9Uc5e-1" value="" style="rounded=0;whiteSpace=wrap;html=1;fillColor=#FFFFCC;" parent="1FKGHby47MiAxsP9Uc5e-12" vertex="1">
          <mxGeometry x="10" y="-20" width="140" height="170" as="geometry" />
        </mxCell>
        <mxCell id="1FKGHby47MiAxsP9Uc5e-3" value="DATA_FSM" style="text;html=1;align=center;verticalAlign=middle;resizable=0;points=[];autosize=1;strokeColor=none;fillColor=none;" parent="1FKGHby47MiAxsP9Uc5e-12" vertex="1">
          <mxGeometry width="90" height="30" as="geometry" />
        </mxCell>
        <mxCell id="1FKGHby47MiAxsP9Uc5e-6" value="READ_EN" style="text;html=1;align=center;verticalAlign=middle;resizable=0;points=[];autosize=1;strokeColor=none;fillColor=none;" parent="1FKGHby47MiAxsP9Uc5e-12" vertex="1">
          <mxGeometry x="70" y="22" width="80" height="30" as="geometry" />
        </mxCell>
        <mxCell id="1FKGHby47MiAxsP9Uc5e-7" value="CLK_CNT_EN" style="text;html=1;align=center;verticalAlign=middle;resizable=0;points=[];autosize=1;strokeColor=none;fillColor=none;" parent="1FKGHby47MiAxsP9Uc5e-12" vertex="1">
          <mxGeometry x="50" y="42" width="100" height="30" as="geometry" />
        </mxCell>
        <mxCell id="1FKGHby47MiAxsP9Uc5e-8" value="VALID" style="text;html=1;align=center;verticalAlign=middle;resizable=0;points=[];autosize=1;strokeColor=none;fillColor=none;" parent="1FKGHby47MiAxsP9Uc5e-12" vertex="1">
          <mxGeometry x="90" y="60" width="60" height="30" as="geometry" />
        </mxCell>
        <mxCell id="1FKGHby47MiAxsP9Uc5e-85" style="edgeStyle=orthogonalEdgeStyle;rounded=0;orthogonalLoop=1;jettySize=auto;html=1;endArrow=oval;endFill=1;exitX=0.003;exitY=0.639;exitDx=0;exitDy=0;exitPerimeter=0;strokeColor=#FF0000;" parent="1FKGHby47MiAxsP9Uc5e-12" source="1FKGHby47MiAxsP9Uc5e-10" edge="1">
          <mxGeometry relative="1" as="geometry">
            <mxPoint x="260" y="200" as="targetPoint" />
            <Array as="points">
              <mxPoint y="129" />
              <mxPoint y="200" />
              <mxPoint x="260" y="200" />
            </Array>
          </mxGeometry>
        </mxCell>
        <mxCell id="1FKGHby47MiAxsP9Uc5e-9" value="BIT_CNT" style="text;html=1;align=center;verticalAlign=middle;resizable=0;points=[];autosize=1;strokeColor=none;fillColor=none;" parent="1FKGHby47MiAxsP9Uc5e-12" vertex="1">
          <mxGeometry x="10" y="92" width="70" height="30" as="geometry" />
        </mxCell>
        <mxCell id="1FKGHby47MiAxsP9Uc5e-10" value="CLK_CNT" style="text;html=1;align=center;verticalAlign=middle;resizable=0;points=[];autosize=1;strokeColor=none;fillColor=none;" parent="1FKGHby47MiAxsP9Uc5e-12" vertex="1">
          <mxGeometry x="10" y="110" width="80" height="30" as="geometry" />
        </mxCell>
        <mxCell id="1FKGHby47MiAxsP9Uc5e-15" value="" style="triangle;whiteSpace=wrap;html=1;fillColor=none;" parent="1FKGHby47MiAxsP9Uc5e-12" vertex="1">
          <mxGeometry x="10" y="140" width="10" height="10" as="geometry" />
        </mxCell>
        <mxCell id="1FKGHby47MiAxsP9Uc5e-13" value="" style="endArrow=none;html=1;rounded=0;strokeWidth=1;" parent="1FKGHby47MiAxsP9Uc5e-16" edge="1">
          <mxGeometry width="50" height="50" relative="1" as="geometry">
            <mxPoint x="-40" y="20" as="sourcePoint" />
            <mxPoint x="40" y="20" as="targetPoint" />
          </mxGeometry>
        </mxCell>
        <mxCell id="Cq8n0TCiu43TakanwMMQ-15" style="edgeStyle=orthogonalEdgeStyle;rounded=0;orthogonalLoop=1;jettySize=auto;html=1;exitX=0;exitY=0.75;exitDx=0;exitDy=0;exitPerimeter=0;endArrow=oval;endFill=1;shadow=0;strokeColor=#0000FF;" parent="1FKGHby47MiAxsP9Uc5e-16" source="Cq8n0TCiu43TakanwMMQ-10" edge="1">
          <mxGeometry relative="1" as="geometry">
            <mxPoint x="320" y="480" as="targetPoint" />
            <Array as="points">
              <mxPoint x="210" y="150" />
              <mxPoint x="210" y="510" />
              <mxPoint x="320" y="510" />
            </Array>
          </mxGeometry>
        </mxCell>
        <mxCell id="Cq8n0TCiu43TakanwMMQ-10" value="" style="verticalLabelPosition=bottom;shadow=0;dashed=0;align=center;html=1;verticalAlign=top;shape=mxgraph.electrical.logic_gates.logic_gate;operation=xor;" parent="1FKGHby47MiAxsP9Uc5e-16" vertex="1">
          <mxGeometry x="290" y="120" width="60" height="40" as="geometry" />
        </mxCell>
        <mxCell id="Cq8n0TCiu43TakanwMMQ-14" style="edgeStyle=orthogonalEdgeStyle;rounded=0;orthogonalLoop=1;jettySize=auto;html=1;entryX=0;entryY=0.25;entryDx=0;entryDy=0;entryPerimeter=0;endArrow=none;endFill=0;strokeColor=#0000FF;" parent="1FKGHby47MiAxsP9Uc5e-16" source="1FKGHby47MiAxsP9Uc5e-7" target="Cq8n0TCiu43TakanwMMQ-10" edge="1">
          <mxGeometry relative="1" as="geometry">
            <Array as="points">
              <mxPoint x="250" y="57" />
              <mxPoint x="250" y="130" />
            </Array>
          </mxGeometry>
        </mxCell>
        <mxCell id="Cq8n0TCiu43TakanwMMQ-43" value="&lt;span style=&quot;font-size: 11px;&quot;&gt;&lt;font color=&quot;#ff0000&quot;&gt;BIT_CNT&lt;/font&gt;&lt;/span&gt;" style="ellipse;whiteSpace=wrap;html=1;strokeColor=none;fillColor=none;" parent="1FKGHby47MiAxsP9Uc5e-16" vertex="1">
          <mxGeometry x="370" y="320" width="65" height="22" as="geometry" />
        </mxCell>
        <mxCell id="1FKGHby47MiAxsP9Uc5e-61" value="" style="group" parent="1" vertex="1" connectable="0">
          <mxGeometry x="410" y="268" width="200" height="82" as="geometry" />
        </mxCell>
        <mxCell id="1FKGHby47MiAxsP9Uc5e-49" value="" style="group" parent="1FKGHby47MiAxsP9Uc5e-61" vertex="1" connectable="0">
          <mxGeometry x="60" width="140" height="82" as="geometry" />
        </mxCell>
        <mxCell id="1FKGHby47MiAxsP9Uc5e-50" value="" style="rounded=0;whiteSpace=wrap;html=1;fillColor=#FFFFCC;" parent="1FKGHby47MiAxsP9Uc5e-49" vertex="1">
          <mxGeometry x="10" width="120" height="82" as="geometry" />
        </mxCell>
        <mxCell id="1FKGHby47MiAxsP9Uc5e-51" value="&lt;b&gt;CMP&lt;/b&gt;" style="text;html=1;align=center;verticalAlign=middle;resizable=0;points=[];autosize=1;strokeColor=none;fillColor=none;" parent="1FKGHby47MiAxsP9Uc5e-49" vertex="1">
          <mxGeometry x="44" width="50" height="30" as="geometry" />
        </mxCell>
        <mxCell id="1FKGHby47MiAxsP9Uc5e-52" value="" style="triangle;whiteSpace=wrap;html=1;fillColor=none;" parent="1FKGHby47MiAxsP9Uc5e-49" vertex="1">
          <mxGeometry x="10" y="72" width="10" height="10" as="geometry" />
        </mxCell>
        <mxCell id="1FKGHby47MiAxsP9Uc5e-53" value="A [4:0]" style="text;html=1;align=center;verticalAlign=middle;resizable=0;points=[];autosize=1;strokeColor=none;fillColor=none;" parent="1FKGHby47MiAxsP9Uc5e-49" vertex="1">
          <mxGeometry x="10" y="22" width="60" height="30" as="geometry" />
        </mxCell>
        <mxCell id="1FKGHby47MiAxsP9Uc5e-55" value="==" style="text;html=1;align=center;verticalAlign=middle;resizable=0;points=[];autosize=1;strokeColor=none;fillColor=none;" parent="1FKGHby47MiAxsP9Uc5e-49" vertex="1">
          <mxGeometry x="90" y="22" width="40" height="30" as="geometry" />
        </mxCell>
        <mxCell id="1FKGHby47MiAxsP9Uc5e-56" value="B [4:0]" style="text;html=1;align=center;verticalAlign=middle;resizable=0;points=[];autosize=1;strokeColor=none;fillColor=none;" parent="1FKGHby47MiAxsP9Uc5e-49" vertex="1">
          <mxGeometry x="10" y="42" width="60" height="30" as="geometry" />
        </mxCell>
        <mxCell id="1FKGHby47MiAxsP9Uc5e-60" style="edgeStyle=orthogonalEdgeStyle;rounded=0;orthogonalLoop=1;jettySize=auto;html=1;exitX=1;exitY=0.5;exitDx=0;exitDy=0;endArrow=none;endFill=0;" parent="1FKGHby47MiAxsP9Uc5e-61" source="1FKGHby47MiAxsP9Uc5e-58" edge="1">
          <mxGeometry relative="1" as="geometry">
            <mxPoint x="70" y="61" as="targetPoint" />
          </mxGeometry>
        </mxCell>
        <mxCell id="1FKGHby47MiAxsP9Uc5e-58" value="&lt;span style=&quot;font-size: 11px;&quot;&gt;01111&lt;/span&gt;" style="ellipse;whiteSpace=wrap;html=1;" parent="1FKGHby47MiAxsP9Uc5e-61" vertex="1">
          <mxGeometry y="50" width="45" height="22" as="geometry" />
        </mxCell>
        <mxCell id="1FKGHby47MiAxsP9Uc5e-78" value="" style="group" parent="1" vertex="1" connectable="0">
          <mxGeometry x="540" y="140" width="180" height="82" as="geometry" />
        </mxCell>
        <mxCell id="1FKGHby47MiAxsP9Uc5e-24" value="" style="group" parent="1FKGHby47MiAxsP9Uc5e-78" vertex="1" connectable="0">
          <mxGeometry x="40" width="140" height="82" as="geometry" />
        </mxCell>
        <mxCell id="1FKGHby47MiAxsP9Uc5e-25" value="" style="rounded=0;whiteSpace=wrap;html=1;fillColor=#FFFFCC;" parent="1FKGHby47MiAxsP9Uc5e-24" vertex="1">
          <mxGeometry x="10" width="120" height="82" as="geometry" />
        </mxCell>
        <mxCell id="1FKGHby47MiAxsP9Uc5e-27" value="" style="triangle;whiteSpace=wrap;html=1;fillColor=none;" parent="1FKGHby47MiAxsP9Uc5e-24" vertex="1">
          <mxGeometry x="10" y="72" width="10" height="10" as="geometry" />
        </mxCell>
        <mxCell id="1FKGHby47MiAxsP9Uc5e-28" value="CE" style="text;html=1;align=center;verticalAlign=middle;resizable=0;points=[];autosize=1;strokeColor=none;fillColor=none;" parent="1FKGHby47MiAxsP9Uc5e-24" vertex="1">
          <mxGeometry x="10" y="22" width="40" height="30" as="geometry" />
        </mxCell>
        <mxCell id="1FKGHby47MiAxsP9Uc5e-29" value="RST" style="text;html=1;align=center;verticalAlign=middle;resizable=0;points=[];autosize=1;strokeColor=none;fillColor=none;" parent="1FKGHby47MiAxsP9Uc5e-24" vertex="1">
          <mxGeometry x="10" y="46.66" width="50" height="30" as="geometry" />
        </mxCell>
        <mxCell id="1FKGHby47MiAxsP9Uc5e-30" value="OUT [4:0]" style="text;html=1;align=center;verticalAlign=middle;resizable=0;points=[];autosize=1;strokeColor=none;fillColor=none;" parent="1FKGHby47MiAxsP9Uc5e-24" vertex="1">
          <mxGeometry x="50" y="22" width="80" height="30" as="geometry" />
        </mxCell>
        <mxCell id="Cq8n0TCiu43TakanwMMQ-41" value="&lt;b&gt;CNT&lt;/b&gt;" style="text;html=1;align=center;verticalAlign=middle;resizable=0;points=[];autosize=1;strokeColor=none;fillColor=none;" parent="1FKGHby47MiAxsP9Uc5e-24" vertex="1">
          <mxGeometry x="45" width="50" height="30" as="geometry" />
        </mxCell>
        <mxCell id="1FKGHby47MiAxsP9Uc5e-72" value="" style="group" parent="1FKGHby47MiAxsP9Uc5e-78" vertex="1" connectable="0">
          <mxGeometry y="50" width="25" height="23.33" as="geometry" />
        </mxCell>
        <mxCell id="1FKGHby47MiAxsP9Uc5e-82" style="edgeStyle=orthogonalEdgeStyle;rounded=0;orthogonalLoop=1;jettySize=auto;html=1;endArrow=oval;endFill=1;" parent="1FKGHby47MiAxsP9Uc5e-72" source="1FKGHby47MiAxsP9Uc5e-73" edge="1">
          <mxGeometry relative="1" as="geometry">
            <mxPoint x="-20" y="-10" as="targetPoint" />
          </mxGeometry>
        </mxCell>
        <mxCell id="1FKGHby47MiAxsP9Uc5e-73" value="" style="triangle;whiteSpace=wrap;html=1;align=center;" parent="1FKGHby47MiAxsP9Uc5e-72" vertex="1">
          <mxGeometry width="17.5" height="23.33" as="geometry" />
        </mxCell>
        <mxCell id="1FKGHby47MiAxsP9Uc5e-74" value="" style="ellipse;whiteSpace=wrap;html=1;aspect=fixed;" parent="1FKGHby47MiAxsP9Uc5e-72" vertex="1">
          <mxGeometry x="17.5" y="7.91" width="7.5" height="7.5" as="geometry" />
        </mxCell>
        <mxCell id="1FKGHby47MiAxsP9Uc5e-76" style="edgeStyle=orthogonalEdgeStyle;rounded=0;orthogonalLoop=1;jettySize=auto;html=1;entryX=1;entryY=0.5;entryDx=0;entryDy=0;endArrow=none;endFill=0;" parent="1FKGHby47MiAxsP9Uc5e-78" source="1FKGHby47MiAxsP9Uc5e-29" target="1FKGHby47MiAxsP9Uc5e-74" edge="1">
          <mxGeometry relative="1" as="geometry" />
        </mxCell>
        <mxCell id="1FKGHby47MiAxsP9Uc5e-84" style="edgeStyle=orthogonalEdgeStyle;rounded=0;orthogonalLoop=1;jettySize=auto;html=1;entryX=0.003;entryY=0.598;entryDx=0;entryDy=0;entryPerimeter=0;endArrow=none;endFill=0;strokeColor=#FF0000;exitX=1.012;exitY=0.503;exitDx=0;exitDy=0;exitPerimeter=0;" parent="1" source="1FKGHby47MiAxsP9Uc5e-30" target="1FKGHby47MiAxsP9Uc5e-53" edge="1">
          <mxGeometry relative="1" as="geometry">
            <mxPoint x="450" y="320" as="targetPoint" />
            <Array as="points">
              <mxPoint x="730" y="177" />
              <mxPoint x="730" y="240" />
              <mxPoint x="430" y="240" />
              <mxPoint x="430" y="310" />
            </Array>
          </mxGeometry>
        </mxCell>
        <mxCell id="1FKGHby47MiAxsP9Uc5e-86" style="edgeStyle=orthogonalEdgeStyle;rounded=0;orthogonalLoop=1;jettySize=auto;html=1;exitX=-0.013;exitY=0.218;exitDx=0;exitDy=0;exitPerimeter=0;entryX=0.983;entryY=0.467;entryDx=0;entryDy=0;entryPerimeter=0;endArrow=none;endFill=0;" parent="1" source="1FKGHby47MiAxsP9Uc5e-32" target="1FKGHby47MiAxsP9Uc5e-55" edge="1">
          <mxGeometry relative="1" as="geometry">
            <mxPoint x="400" y="430" as="targetPoint" />
            <Array as="points">
              <mxPoint x="390" y="509" />
              <mxPoint x="390" y="360" />
              <mxPoint x="640" y="360" />
              <mxPoint x="640" y="306" />
              <mxPoint x="589" y="306" />
              <mxPoint x="589" y="304" />
            </Array>
          </mxGeometry>
        </mxCell>
        <mxCell id="Cq8n0TCiu43TakanwMMQ-16" style="edgeStyle=orthogonalEdgeStyle;rounded=0;orthogonalLoop=1;jettySize=auto;html=1;entryX=0.007;entryY=0.583;entryDx=0;entryDy=0;entryPerimeter=0;endArrow=none;endFill=0;" parent="1" source="Cq8n0TCiu43TakanwMMQ-10" target="1FKGHby47MiAxsP9Uc5e-28" edge="1">
          <mxGeometry relative="1" as="geometry" />
        </mxCell>
        <mxCell id="Cq8n0TCiu43TakanwMMQ-28" value="DIN" style="shape=step;perimeter=stepPerimeter;whiteSpace=wrap;html=1;fixedSize=1;size=10;" parent="1" vertex="1">
          <mxGeometry x="40" y="50" width="60" height="20" as="geometry" />
        </mxCell>
        <mxCell id="Cq8n0TCiu43TakanwMMQ-33" style="edgeStyle=orthogonalEdgeStyle;rounded=0;orthogonalLoop=1;jettySize=auto;html=1;exitX=0;exitY=0.5;exitDx=0;exitDy=0;entryX=1.013;entryY=0.528;entryDx=0;entryDy=0;entryPerimeter=0;endArrow=none;endFill=0;" parent="1" source="Cq8n0TCiu43TakanwMMQ-32" target="1FKGHby47MiAxsP9Uc5e-46" edge="1">
          <mxGeometry relative="1" as="geometry">
            <Array as="points">
              <mxPoint x="700" y="525" />
            </Array>
          </mxGeometry>
        </mxCell>
        <mxCell id="Cq8n0TCiu43TakanwMMQ-32" value="DOUT" style="shape=step;perimeter=stepPerimeter;whiteSpace=wrap;html=1;fixedSize=1;size=10;" parent="1" vertex="1">
          <mxGeometry x="690" y="514.51" width="60" height="20" as="geometry" />
        </mxCell>
        <mxCell id="Cq8n0TCiu43TakanwMMQ-36" style="edgeStyle=orthogonalEdgeStyle;rounded=0;orthogonalLoop=1;jettySize=auto;html=1;exitX=0;exitY=0.5;exitDx=0;exitDy=0;entryX=0.997;entryY=0.556;entryDx=0;entryDy=0;entryPerimeter=0;endArrow=none;endFill=0;strokeColor=#FF00FF;" parent="1" source="Cq8n0TCiu43TakanwMMQ-34" target="1FKGHby47MiAxsP9Uc5e-8" edge="1">
          <mxGeometry relative="1" as="geometry">
            <Array as="points">
              <mxPoint x="330" y="600" />
              <mxPoint x="330" y="119" />
              <mxPoint x="320" y="119" />
            </Array>
          </mxGeometry>
        </mxCell>
        <mxCell id="Cq8n0TCiu43TakanwMMQ-34" value="DOUT_VLD" style="shape=step;perimeter=stepPerimeter;whiteSpace=wrap;html=1;fixedSize=1;size=10;" parent="1" vertex="1">
          <mxGeometry x="660" y="590" width="90" height="20" as="geometry" />
        </mxCell>
        <mxCell id="Cq8n0TCiu43TakanwMMQ-42" value="&lt;span style=&quot;font-size: 11px;&quot;&gt;&lt;font color=&quot;#ff0000&quot;&gt;CLK_CNT&lt;/font&gt;&lt;/span&gt;" style="ellipse;whiteSpace=wrap;html=1;strokeColor=none;fillColor=none;" parent="1" vertex="1">
          <mxGeometry x="617.5" y="118" width="65" height="22" as="geometry" />
        </mxCell>
        <mxCell id="1FKGHby47MiAxsP9Uc5e-2" value="&lt;b&gt;FSM&lt;/b&gt;" style="text;html=1;align=center;verticalAlign=middle;resizable=0;points=[];autosize=1;strokeColor=none;fillColor=none;" parent="1" vertex="1">
          <mxGeometry x="225" y="20" width="50" height="30" as="geometry" />
        </mxCell>
        <mxCell id="1FKGHby47MiAxsP9Uc5e-23" value="" style="group" parent="1" vertex="1" connectable="0">
          <mxGeometry x="470" y="380" width="140" height="82" as="geometry" />
        </mxCell>
        <mxCell id="1FKGHby47MiAxsP9Uc5e-17" value="" style="rounded=0;whiteSpace=wrap;html=1;fillColor=#FFFFCC;" parent="1FKGHby47MiAxsP9Uc5e-23" vertex="1">
          <mxGeometry x="10" width="120" height="82" as="geometry" />
        </mxCell>
        <mxCell id="1FKGHby47MiAxsP9Uc5e-19" value="" style="triangle;whiteSpace=wrap;html=1;fillColor=none;" parent="1FKGHby47MiAxsP9Uc5e-23" vertex="1">
          <mxGeometry x="10" y="72" width="10" height="10" as="geometry" />
        </mxCell>
        <mxCell id="UN3h619YWNNhsJVaDMtR-2" style="edgeStyle=orthogonalEdgeStyle;rounded=0;orthogonalLoop=1;jettySize=auto;html=1;strokeColor=#0000FF;endArrow=oval;endFill=1;" edge="1" parent="1FKGHby47MiAxsP9Uc5e-23" source="1FKGHby47MiAxsP9Uc5e-20">
          <mxGeometry relative="1" as="geometry">
            <mxPoint x="-120" y="37" as="targetPoint" />
          </mxGeometry>
        </mxCell>
        <mxCell id="1FKGHby47MiAxsP9Uc5e-20" value="CE" style="text;html=1;align=center;verticalAlign=middle;resizable=0;points=[];autosize=1;strokeColor=none;fillColor=none;" parent="1FKGHby47MiAxsP9Uc5e-23" vertex="1">
          <mxGeometry x="10" y="22" width="40" height="30" as="geometry" />
        </mxCell>
        <mxCell id="UN3h619YWNNhsJVaDMtR-1" style="edgeStyle=orthogonalEdgeStyle;rounded=0;orthogonalLoop=1;jettySize=auto;html=1;endArrow=oval;endFill=1;strokeColor=#FF33FF;" edge="1" parent="1FKGHby47MiAxsP9Uc5e-23" source="1FKGHby47MiAxsP9Uc5e-21">
          <mxGeometry relative="1" as="geometry">
            <mxPoint x="-140" y="61.65999999999997" as="targetPoint" />
          </mxGeometry>
        </mxCell>
        <mxCell id="1FKGHby47MiAxsP9Uc5e-21" value="RST" style="text;html=1;align=center;verticalAlign=middle;resizable=0;points=[];autosize=1;strokeColor=none;fillColor=none;" parent="1FKGHby47MiAxsP9Uc5e-23" vertex="1">
          <mxGeometry x="10" y="46.66" width="50" height="30" as="geometry" />
        </mxCell>
        <mxCell id="1FKGHby47MiAxsP9Uc5e-22" value="OUT [8:0]" style="text;html=1;align=center;verticalAlign=middle;resizable=0;points=[];autosize=1;strokeColor=none;fillColor=none;" parent="1FKGHby47MiAxsP9Uc5e-23" vertex="1">
          <mxGeometry x="50" y="22" width="80" height="30" as="geometry" />
        </mxCell>
        <mxCell id="Cq8n0TCiu43TakanwMMQ-38" value="&lt;b&gt;CNT&lt;/b&gt;" style="text;html=1;align=center;verticalAlign=middle;resizable=0;points=[];autosize=1;strokeColor=none;fillColor=none;" parent="1FKGHby47MiAxsP9Uc5e-23" vertex="1">
          <mxGeometry x="45" width="50" height="30" as="geometry" />
        </mxCell>
        <mxCell id="1FKGHby47MiAxsP9Uc5e-65" value="" style="group" parent="1" vertex="1" connectable="0">
          <mxGeometry x="400" y="480" width="210" height="110" as="geometry" />
        </mxCell>
        <mxCell id="Cq8n0TCiu43TakanwMMQ-37" style="edgeStyle=orthogonalEdgeStyle;rounded=0;orthogonalLoop=1;jettySize=auto;html=1;exitX=1;exitY=0.5;exitDx=0;exitDy=0;exitPerimeter=0;endArrow=none;endFill=0;" parent="1FKGHby47MiAxsP9Uc5e-65" source="1FKGHby47MiAxsP9Uc5e-32" edge="1">
          <mxGeometry relative="1" as="geometry">
            <mxPoint x="80" y="37.93548387096769" as="targetPoint" />
          </mxGeometry>
        </mxCell>
        <mxCell id="1FKGHby47MiAxsP9Uc5e-32" value="" style="shape=or;whiteSpace=wrap;html=1;align=center;" parent="1FKGHby47MiAxsP9Uc5e-65" vertex="1">
          <mxGeometry x="18" y="20" width="33.33" height="40" as="geometry" />
        </mxCell>
        <mxCell id="1FKGHby47MiAxsP9Uc5e-48" value="" style="group" parent="1FKGHby47MiAxsP9Uc5e-65" vertex="1" connectable="0">
          <mxGeometry x="70" width="140" height="110" as="geometry" />
        </mxCell>
        <mxCell id="1FKGHby47MiAxsP9Uc5e-41" value="" style="rounded=0;whiteSpace=wrap;html=1;fillColor=#FFFFCC;container=0;" parent="1FKGHby47MiAxsP9Uc5e-48" vertex="1">
          <mxGeometry x="10" width="120" height="110" as="geometry" />
        </mxCell>
        <mxCell id="1FKGHby47MiAxsP9Uc5e-42" value="&lt;b&gt;SHIFT REGISTER&lt;/b&gt;" style="text;html=1;align=center;verticalAlign=middle;resizable=0;points=[];autosize=1;strokeColor=none;fillColor=none;container=0;" parent="1FKGHby47MiAxsP9Uc5e-48" vertex="1">
          <mxGeometry x="9" width="120" height="30" as="geometry" />
        </mxCell>
        <mxCell id="1FKGHby47MiAxsP9Uc5e-43" value="" style="triangle;whiteSpace=wrap;html=1;fillColor=none;container=0;" parent="1FKGHby47MiAxsP9Uc5e-48" vertex="1">
          <mxGeometry x="10" y="96.58536585365856" width="10" height="13.414634146341465" as="geometry" />
        </mxCell>
        <mxCell id="1FKGHby47MiAxsP9Uc5e-63" style="edgeStyle=orthogonalEdgeStyle;rounded=0;orthogonalLoop=1;jettySize=auto;html=1;strokeWidth=1;endArrow=oval;endFill=1;exitX=0.011;exitY=0.667;exitDx=0;exitDy=0;exitPerimeter=0;" parent="1FKGHby47MiAxsP9Uc5e-48" source="1FKGHby47MiAxsP9Uc5e-44" edge="1">
          <mxGeometry relative="1" as="geometry">
            <mxPoint x="-350" y="-420" as="targetPoint" />
            <Array as="points">
              <mxPoint x="-350" y="90" />
            </Array>
          </mxGeometry>
        </mxCell>
        <mxCell id="1FKGHby47MiAxsP9Uc5e-45" value="CE" style="text;html=1;align=center;verticalAlign=middle;resizable=0;points=[];autosize=1;strokeColor=none;fillColor=none;container=0;" parent="1FKGHby47MiAxsP9Uc5e-48" vertex="1">
          <mxGeometry x="10" y="29.512195121951223" width="40" height="30" as="geometry" />
        </mxCell>
        <mxCell id="1FKGHby47MiAxsP9Uc5e-46" value="OUT [7:0]" style="text;html=1;align=center;verticalAlign=middle;resizable=0;points=[];autosize=1;strokeColor=none;fillColor=none;container=0;" parent="1FKGHby47MiAxsP9Uc5e-48" vertex="1">
          <mxGeometry x="50" y="29.512195121951223" width="80" height="30" as="geometry" />
        </mxCell>
        <mxCell id="1FKGHby47MiAxsP9Uc5e-44" value="DATA_REG" style="text;html=1;align=center;verticalAlign=middle;resizable=0;points=[];autosize=1;strokeColor=none;fillColor=none;container=0;" parent="1FKGHby47MiAxsP9Uc5e-48" vertex="1">
          <mxGeometry x="9" y="69.99609756097561" width="90" height="30" as="geometry" />
        </mxCell>
        <mxCell id="1FKGHby47MiAxsP9Uc5e-62" style="edgeStyle=orthogonalEdgeStyle;rounded=0;orthogonalLoop=1;jettySize=auto;html=1;endArrow=none;endFill=0;strokeWidth=1;exitX=1.006;exitY=0.594;exitDx=0;exitDy=0;exitPerimeter=0;entryX=0;entryY=0.75;entryDx=0;entryDy=0;entryPerimeter=0;" parent="1" source="1FKGHby47MiAxsP9Uc5e-6" target="1FKGHby47MiAxsP9Uc5e-32" edge="1">
          <mxGeometry relative="1" as="geometry">
            <mxPoint x="370" y="467" as="targetPoint" />
            <Array as="points">
              <mxPoint x="370" y="80" />
              <mxPoint x="370" y="530" />
            </Array>
          </mxGeometry>
        </mxCell>
      </root>
    </mxGraphModel>
  </diagram>
</mxfile>
